<svg width="30" height="24" viewBox="0 0 30 24" fill="none" xmlns="http://www.w3.org/2000/svg">
<path d="M29.5 17L23 19.5H7L0 17.5L7 16L11 14.5H19L23 17H29.5Z" fill="#72526E"/>
<path d="M20 23.5L22 21.5V17L19 14.5H11L8 16.5V21.5L10 23.5H20Z" fill="#FFEBD8"/>
<path d="M17.5 19V18L18 17.5H19L19.5 18V19L19 19.5H18L17.5 19Z" fill="black"/>
<path d="M10.5 19V18L11 17.5H12L12.5 18V19L12 19.5H11L10.5 19Z" fill="black"/>
<path d="M22 12.5L29.5 17L23 17.5L16 15.5L11 16L7 17L0 17.5L8.5 12.5L10 6.5L9 0L18 4.5L22 12.5Z" fill="#C892C2"/>
<path d="M9 10.5L8.5 12.5L15 12L22 12.5L21 10.5L15 10L9 10.5Z" fill="#FBE76C"/>
<path d="M16.5 21V21.5L16 22H14L13.5 21.5V21H16.5Z" fill="#FFABAB"/>
</svg>
